# xmcd
#
# Track frame offsets:
#	150
#	25858
#	38604
#	53777
#	79488
#	94859
#	115099
#	132011
#	144800
#	167853
#
# Disc length: 2484 seconds
#
# Revision: 1
# Processed by: cddbd v1.5.2PL0 Copyright (c) Steve Scherf et al.
# Submitted via: EZCDAudioConverter 8.5.0.1
#
DISCID=7909b20a
DTITLE=Aaron Lewis - The Road
DYEAR=2012
DGENRE=Country
TTITLE0=75
TTITLE1=The Road
TTITLE2=Endless Summer
TTITLE3=Red, White and Blue
TTITLE4=Lessons Learned
TTITLE5=Forever
TTITLE6=Granddaddy's Gun
TTITLE7=State Lines
TTITLE8=Anywhere But Here
TTITLE9=Party In Hell
EXTD=
EXTT0=
EXTT1=
EXTT2=
EXTT3=
EXTT4=
EXTT5=
EXTT6=
EXTT7=
EXTT8=
EXTT9=
PLAYORDER=
